# xmcd
#
# Track frame offsets: 
#        150
#        26365
#        45477
#        67762
#        88515
#        109792
#        130167
#        148397
#
# Disc length: 2280 seconds
#
# Revision: 2
# Processed by: cddbd v1.5.2PL0 Copyright (c) Steve Scherf et al.
# Submitted via: ExactAudioCopyFreeDBPlugin 1.0
#
DISCID=6408e608
DTITLE=Patti Austin - Havana Candy
DYEAR=1977
DGENRE=R&B 70's
TTITLE0=That's Enough For Me
TTITLE1=Little Baby
TTITLE2=I Just Want To Know
TTITLE3=Havana Candy
TTITLE4=Golden Oldies
TTITLE5=I Need Somebody
TTITLE6=We're In Love
TTITLE7=Lost In The Stars
EXTD=
EXTT0=
EXTT1=
EXTT2=
EXTT3=
EXTT4=
EXTT5=
EXTT6=
EXTT7=
PLAYORDER=
